<?xml version="1.0" encoding="utf-8"?>
<!-- Generator: Adobe Illustrator 21.0.0, SVG Export Plug-In . SVG Version: 6.00 Build 0)  -->
<svg version="1.1" id="Layer_1" xmlns="http://www.w3.org/2000/svg" xmlns:xlink="http://www.w3.org/1999/xlink" x="0px" y="0px"
	 viewBox="0 0 447 274" style="enable-background:new 0 0 447 274;" xml:space="preserve">
<style type="text/css">
	.st0{fill:#99B5DE;}
	.st1{opacity:5.000000e-02;}
	.st2{opacity:0.2;}
	.st3{clip-path:url(#SVGID_2_);}
	.st4{fill:#FFFFFF;}
	.st5{fill:#F7F8F8;}
	.st6{fill:#FBFCFC;}
	.st7{fill:#F26B6D;}
	.st8{fill:#626161;}
	.st9{fill:#969494;}
	.st10{fill:#4F85C5;}
	.st11{fill:#6D6E6E;}
	.st12{fill:#E9E7E7;}
	.st13{fill:#F37475;}
	.st14{fill:#F59395;}
	.st15{fill:#E8605F;}
	.st16{fill:#F1F0F0;}
	.st17{fill:#F4F4F5;}
	.st18{fill:#4E88C7;}
	.st19{clip-path:url(#SVGID_4_);}
	.st20{fill:#37499F;}
	.st21{clip-path:url(#SVGID_6_);}
	.st22{fill:#5D5C5C;}
</style>
<g>
	<path class="st0" d="M374.5,210.5h-320c-5.5,0-10-4.5-10-10v-184c0-5.5,4.5-10,10-10h320c5.5,0,10,4.5,10,10v184
		C384.5,206,380,210.5,374.5,210.5z"/>
	<path class="st0" d="M418.7,269.5h-404c-6.3,0-9.2-7.7-4.5-11.9l34.6-40.4c1.2-1.1,2.8-1.7,4.5-1.7h334.9c1.7,0,3.2,0.6,4.5,1.7
		l34.6,40.4C427.9,261.8,425,269.5,418.7,269.5z"/>
	<path class="st1" d="M417.1,269.5H11.9c-3.5,0-6.2-2.8-6.2-6.3l0,0c0-3.5,2.8-6.3,6.2-6.3h405.1c3.5,0,6.3,2.8,6.3,6.3l0,0
		C423.3,266.7,420.5,269.5,417.1,269.5z"/>
	<g class="st2">
		<path d="M71.5,218.6l-1.3,1.8c-0.1,0.2-0.7,0.3-1.3,0.3H47.7c-0.6,0-1-0.1-0.8-0.3l1.5-1.8c0.1-0.2,0.7-0.3,1.3-0.3h21
			C71.2,218.3,71.6,218.4,71.5,218.6z"/>
		<path d="M224.5,225.8l0.1,3.2c0,0.2,0.5,0.3,1.1,0.3h15.3c0.6,0,1.1-0.1,1.1-0.3l-0.4-3.2c0-0.2-0.5-0.3-1.1-0.3h-15
			C225,225.5,224.5,225.6,224.5,225.8z"/>
		<path d="M205,225.8l-0.2,3.2c0,0.2,0.5,0.3,1.1,0.3h15.3c0.6,0,1.1-0.1,1.1-0.3l-0.1-3.2c0-0.2-0.5-0.3-1.1-0.3h-15
			C205.6,225.5,205.1,225.6,205,225.8z"/>
		<path d="M244,225.8l0.4,3.2c0,0.2,0.5,0.3,1.2,0.3h15.3c0.6,0,1.1-0.1,1.1-0.3l-0.7-3.2c0-0.2-0.6-0.3-1.2-0.3h-15
			C244.5,225.5,244,225.6,244,225.8z"/>
		<path d="M226.3,230.2l0.1,3.3c0,0.2,0.5,0.3,1.1,0.3h15.3c0.6,0,1.1-0.2,1.1-0.3l-0.4-3.3c0-0.2-0.5-0.3-1.2-0.3h-15
			C226.8,229.9,226.3,230.1,226.3,230.2z"/>
		<path d="M265.3,230.2l0.7,3.3c0,0.2,0.6,0.3,1.2,0.3h15.3c0.6,0,1.1-0.2,1-0.3l-1-3.3c-0.1-0.2-0.6-0.3-1.2-0.3h-15
			C265.7,229.9,265.3,230.1,265.3,230.2z"/>
		<path d="M351,230.2l2.1,3.3c0.1,0.2,0.7,0.3,1.4,0.3h11c0.6,0,1.1-0.2,0.9-0.3l-2.3-3.3c-0.1-0.2-0.7-0.3-1.4-0.3H352
			C351.3,229.9,350.9,230.1,351,230.2z"/>
		<path d="M381.8,230.2l2.5,3.3c0.1,0.2,0.8,0.3,1.4,0.3h11c0.6,0,1-0.2,0.9-0.3l-2.7-3.3c-0.1-0.2-0.8-0.3-1.4-0.3h-10.8
			C382,229.9,381.6,230.1,381.8,230.2z"/>
		<path d="M366.4,230.2l2.3,3.3c0.1,0.2,0.8,0.3,1.4,0.3h11c0.6,0,1-0.2,0.9-0.3l-2.5-3.3c-0.1-0.2-0.8-0.3-1.4-0.3h-10.8
			C366.7,229.9,366.3,230.1,366.4,230.2z"/>
		<path d="M348.7,230.2l2,3.3c0.1,0.2-0.3,0.3-1,0.3h-42.3c-0.9,0-1.7-0.2-1.8-0.3l-1.3-3.3c-0.1-0.2,0.6-0.3,1.5-0.3h41.6
			C348,229.9,348.6,230.1,348.7,230.2z"/>
		<path d="M284.8,230.2l1,3.3c0.1,0.2,0.6,0.3,1.2,0.3h15.3c0.6,0,1.1-0.2,1-0.3l-1.3-3.3c-0.1-0.2-0.6-0.3-1.2-0.3h-15
			C285.2,229.9,284.8,230.1,284.8,230.2z"/>
		<path d="M245.8,230.2l0.4,3.3c0,0.2,0.6,0.3,1.2,0.3h15.3c0.6,0,1.1-0.2,1.1-0.3l-0.7-3.3c0-0.2-0.6-0.3-1.2-0.3h-15
			C246.3,229.9,245.8,230.1,245.8,230.2z"/>
		<path d="M206.8,230.2l-0.2,3.3c0,0.2,0.5,0.3,1.1,0.3h15.3c0.6,0,1.1-0.2,1.1-0.3l-0.1-3.3c0-0.2-0.5-0.3-1.1-0.3h-15
			C207.3,229.9,206.8,230.1,206.8,230.2z"/>
		<path d="M266.6,239.7l1.1,5.1c0,0.2,0.6,0.4,1.3,0.4h16.4c0.7,0,1.2-0.2,1.1-0.4l-1.5-5.1c-0.1-0.2-0.6-0.4-1.3-0.4h-16
			C267.1,239.4,266.6,239.5,266.6,239.7z"/>
		<path d="M308.2,239.7l0.8,2c0.1,0.2,0.7,0.4,1.3,0.4h22.2c0.7,0,1.1-0.2,1-0.4l-1-2c-0.1-0.2-0.7-0.4-1.4-0.4h-22
			C308.6,239.4,308.2,239.5,308.2,239.7z"/>
		<path d="M309.5,242.8l0.8,2c0.1,0.2,0.7,0.4,1.4,0.4h22.5c0.7,0,1.1-0.2,1-0.4l-1-2c-0.1-0.2-0.7-0.4-1.4-0.4h-22.3
			C309.9,242.5,309.4,242.6,309.5,242.8z"/>
		<path d="M357,239.7l3.2,5.1c0.1,0.2,0.8,0.4,1.4,0.4h11.6c0.7,0,1.1-0.2,1-0.4l-3.5-5.1c-0.1-0.2-0.8-0.4-1.4-0.4h-11.3
			C357.3,239.4,356.8,239.5,357,239.7z"/>
		<path d="M389.1,239.7l3.9,5.1c0.2,0.2,0.8,0.4,1.5,0.4H406c0.7,0,1.1-0.2,0.9-0.4l-4.2-5.1c-0.2-0.2-0.8-0.4-1.5-0.4H390
			C389.3,239.4,388.9,239.5,389.1,239.7z"/>
		<path d="M373,239.7l3.5,5.1c0.1,0.2,0.8,0.4,1.5,0.4h11.6c0.7,0,1.1-0.2,0.9-0.4l-3.8-5.1c-0.1-0.2-0.8-0.4-1.5-0.4H374
			C373.3,239.4,372.9,239.5,373,239.7z"/>
		<path d="M336.6,242.8l1,2c0.1,0.2,0.7,0.4,1.4,0.4h17.7c0.7,0,1.1-0.2,1-0.4l-1.2-2c-0.1-0.2-0.8-0.4-1.4-0.4h-17.4
			C337,242.5,336.5,242.6,336.6,242.8z"/>
		<path d="M288.4,242.8l0.6,2c0.1,0.2,0.7,0.4,1.3,0.4h16.4c0.7,0,1.2-0.2,1.1-0.4l-0.8-2c-0.1-0.2-0.7-0.4-1.3-0.4h-16.2
			C288.9,242.5,288.4,242.6,288.4,242.8z"/>
		<path d="M245.9,239.7l0.7,5.1c0,0.2,0.6,0.4,1.3,0.4h16.4c0.7,0,1.2-0.2,1.1-0.4l-1.1-5.1c0-0.2-0.6-0.4-1.3-0.4h-16
			C246.3,239.4,245.8,239.5,245.9,239.7z"/>
		<path d="M230.3,234.9l0.2,3.4c0,0.2,0.6,0.4,1.2,0.4h16.6c0.7,0,1.2-0.2,1.2-0.4l-0.5-3.4c0-0.2-0.6-0.3-1.3-0.3h-16.3
			C230.8,234.5,230.3,234.7,230.3,234.9z"/>
		<path d="M272.5,234.9l0.9,3.4c0,0.2,0.6,0.4,1.3,0.4h16.6c0.7,0,1.2-0.2,1.1-0.4l-1.2-3.4c-0.1-0.2-0.7-0.3-1.3-0.3h-16.3
			C273,234.5,272.5,234.7,272.5,234.9z"/>
		<path d="M353.9,234.9l2.2,3.4c0.1,0.2,0.7,0.4,1.4,0.4h11.2c0.7,0,1.1-0.2,0.9-0.4l-2.4-3.4c-0.1-0.2-0.8-0.3-1.4-0.3h-11
			C354.2,234.5,353.8,234.7,353.9,234.9z"/>
		<path d="M385.3,234.9l2.6,3.4c0.1,0.2,0.8,0.4,1.5,0.4h11.2c0.7,0,1.1-0.2,0.9-0.4l-2.9-3.4c-0.2-0.2-0.8-0.3-1.4-0.3h-11
			C385.6,234.5,385.2,234.7,385.3,234.9z"/>
		<path d="M369.6,234.9l2.4,3.4c0.1,0.2,0.8,0.4,1.4,0.4h11.2c0.7,0,1.1-0.2,0.9-0.4l-2.6-3.4c-0.1-0.2-0.8-0.3-1.4-0.3h-11
			C369.9,234.5,369.5,234.7,369.6,234.9z"/>
		<path d="M351.6,234.9l2.1,3.4c0.1,0.2-0.3,0.4-0.8,0.4h-57c-0.6,0-1.1-0.2-1.2-0.4l-1.2-3.4c-0.1-0.2,0.3-0.3,0.9-0.3h55.9
			C350.9,234.5,351.5,234.7,351.6,234.9z"/>
		<path d="M251.4,234.9l0.5,3.4c0,0.2,0.6,0.4,1.3,0.4h16.6c0.7,0,1.2-0.2,1.1-0.4l-0.8-3.4c0-0.2-0.6-0.3-1.3-0.3h-16.3
			C251.9,234.5,251.4,234.7,251.4,234.9z"/>
		<path d="M209.2,234.9l-0.1,3.4c0,0.2,0.5,0.4,1.2,0.4h16.6c0.7,0,1.2-0.2,1.2-0.4l-0.2-3.4c0-0.2-0.6-0.3-1.2-0.3h-16.3
			C209.7,234.5,209.2,234.7,209.2,234.9z"/>
		<path d="M263.5,225.8l0.7,3.2c0,0.2,0.6,0.3,1.2,0.3h15.3c0.6,0,1.1-0.1,1-0.3l-1-3.2c-0.1-0.2-0.6-0.3-1.2-0.3h-15
			C264,225.5,263.5,225.6,263.5,225.8z"/>
		<path d="M302.5,225.8l1.3,3.2c0.1,0.2,0.5,0.3,1,0.3h15.7c0.5,0,0.8-0.1,0.7-0.3l-1.5-3.2c-0.1-0.2-0.5-0.3-1-0.3h-15.4
			C302.8,225.5,302.5,225.6,302.5,225.8z"/>
		<path d="M348.2,225.8l2,3.2c0.1,0.2,0.7,0.3,1.3,0.3h10.8c0.6,0,1-0.1,0.9-0.3l-2.2-3.2c-0.1-0.2-0.7-0.3-1.3-0.3h-10.6
			C348.5,225.5,348.1,225.6,348.2,225.8z"/>
		<path d="M378.3,225.8l2.4,3.2c0.1,0.2,0.8,0.3,1.4,0.3h10.8c0.6,0,1-0.1,0.9-0.3l-2.6-3.2c-0.1-0.2-0.8-0.3-1.4-0.3h-10.6
			C378.6,225.5,378.2,225.6,378.3,225.8z"/>
		<path d="M363.3,225.8l2.2,3.2c0.1,0.2,0.7,0.3,1.4,0.3h10.8c0.6,0,1-0.1,0.9-0.3l-2.4-3.2c-0.1-0.2-0.7-0.3-1.3-0.3h-10.6
			C363.6,225.5,363.2,225.6,363.3,225.8z"/>
		<path d="M322.4,225.8l1.6,3.2c0.1,0.2,0.8,0.3,1.6,0.3h21.1c0.8,0,1.4-0.1,1.3-0.3l-1.9-3.2c-0.1-0.2-0.8-0.3-1.6-0.3h-20.7
			C322.9,225.5,322.3,225.6,322.4,225.8z"/>
		<path d="M283,225.8l1,3.2c0.1,0.2,0.6,0.3,1.2,0.3h15.3c0.6,0,1.1-0.1,1-0.3l-1.3-3.2c-0.1-0.2-0.6-0.3-1.2-0.3h-15
			C283.4,225.5,283,225.6,283,225.8z"/>
		<path d="M224.3,218.6l0.1,1.8c0,0.2,0.5,0.3,1.1,0.3h14.7c0.6,0,1.1-0.1,1.1-0.3l-0.2-1.8c0-0.2-0.5-0.3-1.1-0.3h-14.5
			C224.7,218.3,224.3,218.4,224.3,218.6z"/>
		<path d="M261.9,218.6l0.4,1.8c0,0.2,0.6,0.3,1.2,0.3h14.7c0.6,0,1-0.1,1-0.3l-0.5-1.8c0-0.2-0.6-0.3-1.2-0.3h-14.5
			C262.4,218.3,261.9,218.4,261.9,218.6z"/>
		<path d="M299.6,218.6l0.7,1.8c0.1,0.2,0.6,0.3,1.2,0.3h20.1c0.6,0,1-0.1,0.9-0.3l-0.9-1.8c-0.1-0.2-0.6-0.3-1.2-0.3h-19.9
			C300,218.3,299.5,218.4,299.6,218.6z"/>
		<path d="M343.7,218.6l1.1,1.8c0.1,0.2,0.7,0.3,1.3,0.3h10.3c0.6,0,1-0.1,0.9-0.3l-1.2-1.8c-0.1-0.2-0.7-0.3-1.3-0.3h-10.2
			C344,218.3,343.6,218.4,343.7,218.6z"/>
		<path d="M372.8,218.6l1.4,1.8c0.1,0.2,0.7,0.3,1.3,0.3h10.3c0.6,0,1-0.1,0.8-0.3l-1.5-1.8c-0.1-0.2-0.7-0.3-1.3-0.3h-10.2
			C373,218.3,372.7,218.4,372.8,218.6z"/>
		<path d="M358.2,218.6l1.2,1.8c0.1,0.2,0.7,0.3,1.3,0.3h10.3c0.6,0,1-0.1,0.9-0.3l-1.3-1.8c-0.1-0.2-0.7-0.3-1.3-0.3h-10.2
			C358.5,218.3,358.1,218.4,358.2,218.6z"/>
		<path d="M323.8,218.6l0.9,1.8c0.1,0.2,0.6,0.3,1.2,0.3h15.8c0.6,0,1-0.1,0.9-0.3l-1.1-1.8c-0.1-0.2-0.7-0.3-1.3-0.3h-15.6
			C324.1,218.3,323.7,218.4,323.8,218.6z"/>
		<path d="M280.8,218.6l0.6,1.8c0.1,0.2,0.6,0.3,1.2,0.3h14.7c0.6,0,1-0.1,1-0.3l-0.7-1.8c-0.1-0.2-0.6-0.3-1.2-0.3h-14.5
			C281.2,218.3,280.7,218.4,280.8,218.6z"/>
		<path d="M243.1,218.6l0.2,1.8c0,0.2,0.5,0.3,1.1,0.3h14.7c0.6,0,1.1-0.1,1-0.3l-0.4-1.8c0-0.2-0.5-0.3-1.1-0.3h-14.5
			C243.6,218.3,243.1,218.4,243.1,218.6z"/>
		<path d="M216.7,221.5l0,3c0,0.2,0.5,0.3,1.1,0.3h15c0.6,0,1.1-0.1,1.1-0.3l-0.2-3c0-0.2-0.5-0.3-1.1-0.3h-14.7
			C217.2,221.2,216.7,221.3,216.7,221.5z"/>
		<path d="M255,221.5l0.6,3c0,0.2,0.6,0.3,1.2,0.3h15c0.6,0,1.1-0.1,1-0.3l-0.8-3c0-0.2-0.6-0.3-1.2-0.3H256
			C255.4,221.2,254.9,221.3,255,221.5z"/>
		<path d="M293.2,221.5l1.1,3c0.1,0.2,0.5,0.3,0.9,0.3h15.3c0.5,0,0.8-0.1,0.7-0.3l-1.4-3c-0.1-0.2-0.5-0.3-1-0.3h-15.1
			C293.4,221.2,293.1,221.3,293.2,221.5z"/>
		<path d="M345.6,221.5l1.9,3c0.1,0.2,0.7,0.3,1.3,0.3h10.5c0.6,0,1-0.1,0.9-0.3l-2.1-3c-0.1-0.2-0.7-0.3-1.3-0.3h-10.4
			C345.9,221.2,345.5,221.3,345.6,221.5z"/>
		<path d="M375,221.5l2.3,3c0.1,0.2,0.7,0.3,1.3,0.3h10.5c0.6,0,1-0.1,0.9-0.3l-2.5-3c-0.1-0.2-0.7-0.3-1.3-0.3h-10.4
			C375.3,221.2,374.9,221.3,375,221.5z"/>
		<path d="M360.3,221.5l2.1,3c0.1,0.2,0.7,0.3,1.3,0.3h10.5c0.6,0,1-0.1,0.9-0.3l-2.3-3c-0.1-0.2-0.7-0.3-1.3-0.3h-10.4
			C360.6,221.2,360.2,221.3,360.3,221.5z"/>
		<path d="M312.6,221.5l1.4,3c0.1,0.2,1,0.3,2,0.3h27.5c1,0,1.8-0.1,1.7-0.3l-1.9-3c-0.1-0.2-1-0.3-2-0.3h-27
			C313.3,221.2,312.6,221.3,312.6,221.5z"/>
		<path d="M274.1,221.5l0.8,3c0,0.2,0.6,0.3,1.2,0.3h15c0.6,0,1.1-0.1,1-0.3l-1.1-3c-0.1-0.2-0.6-0.3-1.2-0.3h-14.7
			C274.5,221.2,274,221.3,274.1,221.5z"/>
		<path d="M235.8,221.5l0.3,3c0,0.2,0.5,0.3,1.1,0.3h15c0.6,0,1.1-0.1,1.1-0.3l-0.5-3c0-0.2-0.5-0.3-1.1-0.3h-14.7
			C236.3,221.2,235.8,221.3,235.8,221.5z"/>
		<path d="M197.6,221.5l-0.3,3c0,0.2,0.5,0.3,1.1,0.3h15c0.6,0,1.1-0.1,1.1-0.3l0-3c0-0.2-0.5-0.3-1.1-0.3h-14.7
			C198.2,221.2,197.7,221.3,197.6,221.5z"/>
		<path d="M38.6,230.2l-2.7,3.3c-0.2,0.2,0.3,0.3,1.1,0.3h26.8c0.8,0,1.5-0.2,1.6-0.3l2.3-3.3c0.1-0.2-0.4-0.3-1.1-0.3H40.3
			C39.5,229.9,38.8,230.1,38.6,230.2z"/>
		<path d="M89.8,230.2l-2,3.3c-0.1,0.2,0.3,0.3,0.9,0.3h15.3c0.6,0,1.2-0.2,1.3-0.3l1.7-3.3c0.1-0.2-0.3-0.3-0.9-0.3h-15
			C90.5,229.9,89.9,230.1,89.8,230.2z"/>
		<path d="M128.8,230.2l-1.4,3.3c-0.1,0.2,0.4,0.3,1,0.3h15.3c0.6,0,1.2-0.2,1.2-0.3l1.1-3.3c0.1-0.2-0.4-0.3-1-0.3h-15
			C129.4,229.9,128.9,230.1,128.8,230.2z"/>
		<path d="M167.8,230.2l-0.8,3.3c0,0.2,0.4,0.3,1.1,0.3h15.3c0.6,0,1.2-0.2,1.2-0.3l0.5-3.3c0-0.2-0.5-0.3-1.1-0.3h-15
			C168.4,229.9,167.9,230.1,167.8,230.2z"/>
		<path d="M187.3,230.2l-0.5,3.3c0,0.2,0.5,0.3,1.1,0.3h15.3c0.6,0,1.1-0.2,1.2-0.3l0.2-3.3c0-0.2-0.5-0.3-1.1-0.3h-15
			C187.9,229.9,187.3,230.1,187.3,230.2z"/>
		<path d="M148.3,230.2l-1.1,3.3c-0.1,0.2,0.4,0.3,1,0.3h15.3c0.6,0,1.2-0.2,1.2-0.3l0.8-3.3c0-0.2-0.4-0.3-1-0.3h-15
			C148.9,229.9,148.4,230.1,148.3,230.2z"/>
		<path d="M109.3,230.2l-1.7,3.3c-0.1,0.2,0.3,0.3,1,0.3h15.3c0.6,0,1.2-0.2,1.3-0.3l1.4-3.3c0.1-0.2-0.4-0.3-1-0.3h-15
			C110,229.9,109.4,230.1,109.3,230.2z"/>
		<path d="M70.3,230.2l-2.3,3.3c-0.1,0.2,0.3,0.3,0.9,0.3h15.3c0.6,0,1.2-0.2,1.3-0.3l2-3.3c0.1-0.2-0.3-0.3-0.9-0.3h-15
			C71,229.9,70.4,230.1,70.3,230.2z"/>
		<path d="M30.7,239.7l-4.2,5.1c-0.2,0.2,0.2,0.4,0.9,0.4h23.7c0.7,0,1.3-0.2,1.5-0.4l3.6-5.1c0.1-0.2-0.3-0.4-0.9-0.4H32.2
			C31.6,239.4,30.9,239.5,30.7,239.7z"/>
		<path d="M79.5,239.7l-3.1,5.1c-0.1,0.2,0.3,0.4,1,0.4h16.4c0.7,0,1.3-0.2,1.4-0.4l2.7-5.1c0.1-0.2-0.3-0.4-1-0.4h-16
			C80.2,239.4,79.6,239.5,79.5,239.7z"/>
		<path d="M100.3,239.7l-2.6,5.1c-0.1,0.2,0.4,0.4,1,0.4h16.4c0.7,0,1.3-0.2,1.4-0.4l2.2-5.1c0.1-0.2-0.4-0.4-1-0.4h-16
			C101,239.4,100.4,239.5,100.3,239.7z"/>
		<path d="M58.7,239.7l-3.6,5.1c-0.1,0.2,0.3,0.4,1,0.4h16.4c0.7,0,1.3-0.2,1.4-0.4l3.2-5.1c0.1-0.2-0.3-0.4-1-0.4h-16
			C59.5,239.4,58.8,239.5,58.7,239.7z"/>
		<path d="M82.4,234.9l-2.1,3.4c-0.1,0.2,0.3,0.4,1,0.4h16.6c0.7,0,1.3-0.2,1.4-0.4l1.8-3.4c0.1-0.2-0.4-0.3-1-0.3H83.9
			C83.2,234.5,82.6,234.7,82.4,234.9z"/>
		<path d="M124.7,234.9l-1.4,3.4c-0.1,0.2,0.4,0.4,1.1,0.4h16.6c0.7,0,1.3-0.2,1.3-0.4l1.2-3.4c0.1-0.2-0.4-0.3-1.1-0.3H126
			C125.4,234.5,124.8,234.7,124.7,234.9z"/>
		<path d="M166.9,234.9l-0.8,3.4c0,0.2,0.5,0.4,1.1,0.4h16.6c0.7,0,1.3-0.2,1.3-0.4l0.5-3.4c0-0.2-0.5-0.3-1.2-0.3h-16.3
			C167.5,234.5,167,234.7,166.9,234.9z"/>
		<path d="M188.1,234.9l-0.5,3.4c0,0.2,0.5,0.4,1.2,0.4h16.6c0.7,0,1.2-0.2,1.2-0.4l0.2-3.4c0-0.2-0.5-0.3-1.2-0.3h-16.3
			C188.6,234.5,188.1,234.7,188.1,234.9z"/>
		<path d="M145.8,234.9l-1.1,3.4c-0.1,0.2,0.4,0.4,1.1,0.4h16.6c0.7,0,1.3-0.2,1.3-0.4l0.8-3.4c0-0.2-0.5-0.3-1.1-0.3h-16.3
			C146.5,234.5,145.9,234.7,145.8,234.9z"/>
		<path d="M103.6,234.9l-1.8,3.4c-0.1,0.2,0.4,0.4,1,0.4h16.6c0.7,0,1.3-0.2,1.4-0.4l1.5-3.4c0.1-0.2-0.4-0.3-1.1-0.3H105
			C104.3,234.5,103.7,234.7,103.6,234.9z"/>
		<path d="M80.1,234.9l-2.1,3.4c-0.1,0.2-0.8,0.4-1.4,0.4H33.4c-1,0-1.6-0.2-1.5-0.4l2.9-3.4c0.2-0.2,1-0.3,2-0.3h42.4
			C79.8,234.5,80.2,234.7,80.1,234.9z"/>
		<path d="M42.3,225.8l-2.6,3.2c-0.1,0.2,0.2,0.3,0.9,0.3h22.1c0.6,0,1.2-0.1,1.4-0.3l2.3-3.2c0.1-0.2-0.3-0.3-0.9-0.3H43.7
			C43.1,225.5,42.5,225.6,42.3,225.8z"/>
		<path d="M88,225.8l-1.9,3.2c-0.1,0.2,0.3,0.3,0.9,0.3h15.3c0.6,0,1.2-0.1,1.3-0.3l1.7-3.2c0.1-0.2-0.3-0.3-0.9-0.3h-15
			C88.7,225.5,88.1,225.6,88,225.8z"/>
		<path d="M127,225.8l-1.4,3.2c-0.1,0.2,0.4,0.3,1,0.3H142c0.6,0,1.2-0.1,1.2-0.3l1.1-3.2c0.1-0.2-0.4-0.3-1-0.3h-15
			C127.7,225.5,127.1,225.6,127,225.8z"/>
		<path d="M166,225.8l-0.8,3.2c0,0.2,0.4,0.3,1.1,0.3h15.3c0.6,0,1.2-0.1,1.2-0.3l0.5-3.2c0-0.2-0.4-0.3-1.1-0.3h-15
			C166.6,225.5,166.1,225.6,166,225.8z"/>
		<path d="M185.5,225.8l-0.5,3.2c0,0.2,0.5,0.3,1.1,0.3h15.3c0.6,0,1.1-0.1,1.2-0.3l0.2-3.2c0-0.2-0.5-0.3-1.1-0.3h-15
			C186.1,225.5,185.6,225.6,185.5,225.8z"/>
		<path d="M146.5,225.8l-1.1,3.2c-0.1,0.2,0.4,0.3,1,0.3h15.3c0.6,0,1.2-0.1,1.2-0.3l0.8-3.2c0-0.2-0.4-0.3-1-0.3h-15
			C147.1,225.5,146.6,225.6,146.5,225.8z"/>
		<path d="M107.5,225.8l-1.6,3.2c-0.1,0.2,0.3,0.3,1,0.3h15.3c0.6,0,1.2-0.1,1.3-0.3l1.4-3.2c0.1-0.2-0.4-0.3-1-0.3h-15
			C108.2,225.5,107.6,225.6,107.5,225.8z"/>
		<path d="M68.5,225.8l-2.2,3.2c-0.1,0.2,0.3,0.3,0.9,0.3h15.3c0.6,0,1.2-0.1,1.3-0.3l2-3.2c0.1-0.2-0.3-0.3-0.9-0.3h-15
			C69.2,225.5,68.7,225.6,68.5,225.8z"/>
		<path d="M45.9,221.5l-2.5,3c-0.1,0.2,0.1,0.3,0.5,0.3h14.4c0.4,0,0.8-0.1,1-0.3l2.3-3c0.1-0.2-0.1-0.3-0.5-0.3H46.9
			C46.5,221.2,46,221.3,45.9,221.5z"/>
		<path d="M83,221.5l-2,3c-0.1,0.2,0.3,0.3,0.9,0.3h15c0.6,0,1.2-0.1,1.3-0.3l1.7-3c0.1-0.2-0.3-0.3-0.9-0.3H84.3
			C83.7,221.2,83.1,221.3,83,221.5z"/>
		<path d="M121.2,221.5l-1.4,3c-0.1,0.2,0.4,0.3,1,0.3h15c0.6,0,1.2-0.1,1.2-0.3l1.2-3c0.1-0.2-0.4-0.3-1-0.3h-14.7
			C121.8,221.2,121.3,221.3,121.2,221.5z"/>
		<path d="M159.4,221.5l-0.8,3c0,0.2,0.4,0.3,1,0.3h15c0.6,0,1.1-0.1,1.2-0.3l0.6-3c0-0.2-0.4-0.3-1-0.3h-14.7
			C160,221.2,159.5,221.3,159.4,221.5z"/>
		<path d="M178.5,221.5l-0.6,3c0,0.2,0.4,0.3,1.1,0.3h15c0.6,0,1.1-0.1,1.1-0.3l0.3-3c0-0.2-0.5-0.3-1.1-0.3h-14.7
			C179.1,221.2,178.6,221.3,178.5,221.5z"/>
		<path d="M140.3,221.5l-1.1,3c-0.1,0.2,0.4,0.3,1,0.3h15c0.6,0,1.1-0.1,1.2-0.3l0.9-3c0-0.2-0.4-0.3-1-0.3h-14.7
			C140.9,221.2,140.4,221.3,140.3,221.5z"/>
		<path d="M102.1,221.5l-1.7,3c-0.1,0.2,0.3,0.3,0.9,0.3h15c0.6,0,1.2-0.1,1.3-0.3l1.4-3c0.1-0.2-0.3-0.3-0.9-0.3h-14.7
			C102.8,221.2,102.2,221.3,102.1,221.5z"/>
		<path d="M63.9,221.5l-2.3,3c-0.1,0.2,0.3,0.3,0.9,0.3h15c0.6,0,1.2-0.1,1.3-0.3l2-3c0.1-0.2-0.3-0.3-0.9-0.3H65.2
			C64.6,221.2,64,221.3,63.9,221.5z"/>
		<path d="M222.1,218.6l0,1.8c0,0.2-0.5,0.3-1.1,0.3h-14.7c-0.6,0-1.1-0.1-1.1-0.3l0.1-1.8c0-0.2,0.5-0.3,1.1-0.3H221
			C221.6,218.3,222.1,218.4,222.1,218.6z"/>
		<path d="M203.3,218.6l-0.1,1.8c0,0.2-0.5,0.3-1.1,0.3h-14.7c-0.6,0-1.1-0.1-1-0.3l0.3-1.8c0-0.2,0.5-0.3,1.1-0.3h14.5
			C202.8,218.3,203.3,218.4,203.3,218.6z"/>
		<path d="M184.5,218.6l-0.3,1.8c0,0.2-0.5,0.3-1.1,0.3h-14.7c-0.6,0-1.1-0.1-1-0.3l0.4-1.8c0-0.2,0.6-0.3,1.1-0.3h14.5
			C184,218.3,184.5,218.4,184.5,218.6z"/>
		<path d="M165.6,218.6l-0.4,1.8c0,0.2-0.6,0.3-1.2,0.3h-14.7c-0.6,0-1-0.1-1-0.3l0.6-1.8c0.1-0.2,0.6-0.3,1.2-0.3h14.5
			C165.2,218.3,165.7,218.4,165.6,218.6z"/>
		<path d="M146.8,218.6l-0.6,1.8c-0.1,0.2-0.6,0.3-1.2,0.3h-14.7c-0.6,0-1-0.1-1-0.3l0.8-1.8c0.1-0.2,0.6-0.3,1.2-0.3h14.5
			C146.4,218.3,146.9,218.4,146.8,218.6z"/>
		<path d="M128,218.6l-0.8,1.8c-0.1,0.2-0.6,0.3-1.2,0.3h-14.7c-0.6,0-1-0.1-0.9-0.3l0.9-1.8c0.1-0.2,0.6-0.3,1.2-0.3H127
			C127.6,218.3,128,218.4,128,218.6z"/>
		<path d="M109.1,218.6l-0.9,1.8c-0.1,0.2-0.6,0.3-1.2,0.3H92.3c-0.6,0-1-0.1-0.9-0.3l1.1-1.8c0.1-0.2,0.7-0.3,1.3-0.3h14.5
			C108.8,218.3,109.2,218.4,109.1,218.6z"/>
		<path d="M90.3,218.6l-1.1,1.8c-0.1,0.2-0.7,0.3-1.3,0.3H73.3c-0.6,0-1-0.1-0.9-0.3l1.2-1.8c0.1-0.2,0.7-0.3,1.3-0.3h14.5
			C90,218.3,90.4,218.4,90.3,218.6z"/>
		<path d="M243.5,239.7l0.6,5.1c0,0.2-0.5,0.4-1.2,0.4H120c-0.7,0-1.1-0.2-1.1-0.4l2.2-5.1c0.1-0.2,0.7-0.4,1.3-0.4h119.8
			C242.9,239.4,243.5,239.5,243.5,239.7z"/>
	</g>
	<polygon class="st2" points="255.8,254.3 178.4,254.1 181.2,246.8 252.2,246.8 	"/>
	<g>
		<defs>
			<path id="SVGID_1_" d="M366.5,195.5h-304c-5.5,0-10-4.5-10-10v-154c0-5.5,4.5-10,10-10h304c5.5,0,10,4.5,10,10v154
				C376.5,191,372,195.5,366.5,195.5z"/>
		</defs>
		<clipPath id="SVGID_2_">
			<use xlink:href="#SVGID_1_"  style="overflow:visible;"/>
		</clipPath>
		<g class="st3">
			<rect x="53" y="21" class="st4" width="323.4" height="198.7"/>
			<rect x="53" y="21" class="st5" width="323.4" height="19.9"/>
			<rect x="53" y="40.9" class="st6" width="323.4" height="84.2"/>
			<rect x="99.8" y="54" class="st7" width="65.2" height="9.5"/>
			<path class="st8" d="M99.8,67.5h40.5v1.6H99.8V67.5z"/>
			<path class="st8" d="M99.8,71.5h48.5v1.6H99.8V71.5z"/>
			<path class="st9" d="M225,29.3h17.5v4H225V29.3z"/>
			<path class="st9" d="M275.9,29.3h17.5v4h-17.5V29.3z"/>
			<path class="st9" d="M250.4,29.3h17.5v4h-17.5V29.3z"/>
			<path class="st8" d="M99.8,79.4h9.5V81h-9.5V79.4z"/>
			<path class="st8" d="M99.8,75.4h29V77h-29V75.4z"/>
			<rect x="99.8" y="87.4" class="st10" width="23.8" height="8.3"/>
			<rect x="305.3" y="27.4" class="st10" width="23.8" height="8.3"/>
			<rect x="195.6" y="138.2" class="st11" width="46.5" height="6"/>
			<rect x="118.9" y="158.5" class="st12" width="43.7" height="49.3"/>
			<rect x="170.6" y="158.5" class="st12" width="43.7" height="49.3"/>
			<rect x="222.2" y="158.5" class="st12" width="43.7" height="49.3"/>
			<rect x="273.9" y="158.5" class="st12" width="43.7" height="49.3"/>
			<path class="st13" d="M105.6,25.4h0.4c3.2,0,5.8,2.6,5.8,5.8l0,0c0,3.2-2.6,5.8-5.8,5.8h-0.4c-3.2,0-5.8-2.6-5.8-5.8l0,0
				C99.8,28,102.4,25.4,105.6,25.4z"/>
			<path class="st14" d="M107.8,25.4L107.8,25.4c2.2,0,4,1.8,4,4v3.6c0,2.2-1.8,4-4,4l0,0c-2.2,0-4-1.8-4-4v-3.6
				C103.8,27.1,105.6,25.4,107.8,25.4z"/>
			<path class="st15" d="M103.6,29.3h0.4c2.1,0,3.8,1.7,3.8,3.8l0,0c0,2.1-1.7,3.8-3.8,3.8h-0.4c-2.1,0-3.8-1.7-3.8-3.8l0,0
				C99.8,31,101.5,29.3,103.6,29.3z"/>
			<path class="st16" d="M294.1,89.2V68.8c0-1.6-1.3-2.9-2.9-2.9h-20.4c-1.6,0-2.9,1.3-2.9,2.9v20.4c0,1.6,1.3,2.9,2.9,2.9h20.4
				C292.8,92.1,294.1,90.8,294.1,89.2z M275.9,81.2l3.6,4.4l5.1-6.6l6.6,8.7h-20.4L275.9,81.2z"/>
		</g>
	</g>
</g>
<g>
	<path class="st18" d="M290.5,264.2V71.7c0-2.8,2.2-5,5-5H433c2.8,0,5,2.2,5,5v192.5c0,2.8-2.2,5-5,5H295.5
		C292.7,269.2,290.5,266.9,290.5,264.2z"/>
	<g>
		<defs>
			<path id="SVGID_3_" d="M430.5,256H297.8c-2.2,0-4-1.8-4-4V78.3c0-2.2,1.8-4,4-4h132.8c2.2,0,4,1.8,4,4V252
				C434.5,254.2,432.7,256,430.5,256z"/>
		</defs>
		<clipPath id="SVGID_4_">
			<use xlink:href="#SVGID_3_"  style="overflow:visible;"/>
		</clipPath>
		<g class="st19">
			<rect x="292.9" y="74.7" class="st4" width="143" height="239.7"/>
			<rect x="292.9" y="74.7" class="st5" width="143" height="18.5"/>
			<rect x="292.9" y="93.2" class="st6" width="143" height="78.5"/>
			<rect x="303.3" y="105.4" class="st7" width="60.8" height="8.9"/>
			<path class="st8" d="M303.3,118H341v1.5h-37.8V118z"/>
			<path class="st8" d="M303.3,121.7h45.2v1.5h-45.2V121.7z"/>
			<path class="st9" d="M332.1,81.7h16.3v3.7h-16.3V81.7z"/>
			<path class="st9" d="M379.6,81.7h16.3v3.7h-16.3V81.7z"/>
			<path class="st9" d="M355.9,81.7h16.3v3.7h-16.3V81.7z"/>
			<path class="st8" d="M303.3,129.2h8.9v1.5h-8.9V129.2z"/>
			<path class="st8" d="M303.3,125.5h27v1.5h-27V125.5z"/>
			<rect x="303.3" y="136.6" class="st10" width="22.2" height="7.8"/>
			<rect x="404.8" y="79.9" class="st10" width="22.2" height="7.8"/>
			<rect x="342.2" y="182.1" class="st11" width="43.3" height="5.6"/>
			<rect x="301" y="198.1" class="st12" width="39.3" height="45.9"/>
			<rect x="344.4" y="198.1" class="st12" width="39.3" height="45.9"/>
			<rect x="365.9" y="247.7" class="st12" width="39.3" height="45.9"/>
			<rect x="322.5" y="247.7" class="st12" width="39.3" height="45.9"/>
			<rect x="387.7" y="198.1" class="st12" width="39.3" height="45.9"/>
			<path class="st13" d="M308.6,78.4h0.4c3,0,5.4,2.4,5.4,5.4l0,0c0,3-2.4,5.4-5.4,5.4h-0.4c-3,0-5.4-2.4-5.4-5.4l0,0
				C303.3,80.8,305.7,78.4,308.6,78.4z"/>
			<path class="st14" d="M310.7,78.4L310.7,78.4c2,0,3.7,1.7,3.7,3.7v3.3c0,2-1.7,3.7-3.7,3.7l0,0c-2,0-3.7-1.7-3.7-3.7v-3.3
				C307,80.1,308.6,78.4,310.7,78.4z"/>
			<path class="st15" d="M306.8,82.1h0.4c1.9,0,3.5,1.6,3.5,3.5l0,0c0,1.9-1.6,3.5-3.5,3.5h-0.4c-1.9,0-3.5-1.6-3.5-3.5l0,0
				C303.3,83.7,304.8,82.1,306.8,82.1z"/>
		</g>
	</g>
</g>
<g>
	<path class="st20" d="M282.3,269.3h-56c-2.2,0-4-1.8-4-4V142.8c0-2.2,1.8-4,4-4h56c2.2,0,4,1.8,4,4v122.5
		C286.3,267.5,284.5,269.3,282.3,269.3z"/>
	<g>
		<defs>
			<path id="SVGID_5_" d="M281,265.9h-53.6c-2.2,0-4-1.8-4-4V145.8c0-2.2,1.8-4,4-4H281c2.2,0,4,1.8,4,4v116.2
				C285,264.1,283.2,265.9,281,265.9z"/>
		</defs>
		<clipPath id="SVGID_6_">
			<use xlink:href="#SVGID_5_"  style="overflow:visible;"/>
		</clipPath>
		<g class="st21">
			<rect x="223.4" y="141.8" class="st4" width="61.6" height="126"/>
			<rect x="223.4" y="141.8" class="st5" width="61.6" height="13.6"/>
			<path class="st13" d="M231.5,144.7h0.3c2.3,0,4.1,1.8,4.1,4.1l0,0c0,2.3-1.8,4.1-4.1,4.1h-0.3c-2.3,0-4.1-1.8-4.1-4.1l0,0
				C227.4,146.5,229.2,144.7,231.5,144.7z"/>
			<path class="st14" d="M233,144.7L233,144.7c1.6,0,2.8,1.3,2.8,2.8v2.6c0,1.6-1.3,2.8-2.8,2.8l0,0c-1.6,0-2.8-1.3-2.8-2.8v-2.6
				C230.2,145.9,231.5,144.7,233,144.7z"/>
			<path class="st15" d="M230.1,147.5h0.3c1.5,0,2.7,1.2,2.7,2.7l0,0c0,1.5-1.2,2.7-2.7,2.7h-0.3c-1.5,0-2.7-1.2-2.7-2.7l0,0
				C227.4,148.7,228.6,147.5,230.1,147.5z"/>
			<rect x="223.4" y="155.5" class="st6" width="61.6" height="112.4"/>
			<rect x="227.4" y="219.3" class="st7" width="46.5" height="6.8"/>
			<path class="st8" d="M227.4,229h28.9v1.1h-28.9V229z"/>
			<path class="st8" d="M227.4,231.8H262v1.1h-34.6V231.8z"/>
			<path class="st8" d="M227.4,237.5h6.8v1.1h-6.8V237.5z"/>
			<path class="st8" d="M227.4,234.6h20.7v1.1h-20.7V234.6z"/>
			<rect x="227.4" y="243.1" class="st10" width="17" height="6"/>
			<path class="st16" d="M263.1,191.7v-14.6c0-1.1-0.9-2.1-2.1-2.1h-14.6c-1.1,0-2.1,0.9-2.1,2.1v14.6c0,1.1,0.9,2.1,2.1,2.1H261
				C262.2,193.8,263.1,192.8,263.1,191.7z M250.1,186l2.6,3.1l3.6-4.7l4.7,6.2h-14.6L250.1,186z"/>
			<path class="st22" d="M281,147.3h-4.8v-0.6h4.8V147.3z"/>
			<path class="st22" d="M281,148.9h-4.8v-0.6h4.8V148.9z"/>
			<path class="st22" d="M281,150.5h-4.8V150h4.8V150.5z"/>
		</g>
	</g>
</g>
</svg>
